{"title":"Riger Mortis (2013) 720p BluRay x264 HC Eng Subs-BDM","uid":9527166,"size":1384362712,"categoryP":"video","categoryS":"hd___movies","magnet":"?xt=urn:btih:e6b365dd5cac049d414143f409e53453aef4fbdf&amp;dn=Riger+Mortis+%282013%29+720p+BluRay+x264+HC+Eng+Subs-BDM&amp;tr=udp%3A%2F%2Ftracker.openbittorrent.com%3A80&amp;tr=udp%3A%2F%2Fopen.demonii.com%3A1337&amp;tr=udp%3A%2F%2Ftracker.coppersurfer.tk%3A6969&amp;tr=udp%3A%2F%2Fexodus.desync.com%3A6969","seeders":1,"leechers":0,"uploader":"BigDogMoya","files":-1,"time":1390769915,"description":"*NOTE*\n\nThis release contains Chinese audio and HARDCODED ENGLISH subtitles.\n\n\nIMDB Link:\n  &lt;a href=&quot;\nhttp://www.imdb.com/title/tt2771800/&quot; rel=&quot;nofollow&quot; target=&quot;_NEW&quot;&gt;\nhttp://www.imdb.com/title/tt2771800/&lt;/a&gt;\n\n\nScreens:\n &lt;a href=&quot;\nhttp://i.imgur.com/Ee9Qh26.png&quot; rel=&quot;nofollow&quot; target=&quot;_NEW&quot;&gt;\nhttp://i.imgur.com/Ee9Qh26.png&lt;/a&gt;\n &lt;a href=&quot;\nhttp://i.imgur.com/AzENKny.png&quot; rel=&quot;nofollow&quot; target=&quot;_NEW&quot;&gt;\nhttp://i.imgur.com/AzENKny.png&lt;/a&gt;\n &lt;a href=&quot;\nhttp://i.imgur.com/FJfOc8G.png&quot; rel=&quot;nofollow&quot; target=&quot;_NEW&quot;&gt;\nhttp://i.imgur.com/FJfOc8G.png&lt;/a&gt;\n &lt;a href=&quot;\nhttp://i.imgur.com/KBRKxbn.png&quot; rel=&quot;nofollow&quot; target=&quot;_NEW&quot;&gt;\nhttp://i.imgur.com/KBRKxbn.png&lt;/a&gt;\n &lt;a href=&quot;\nhttp://i.imgur.com/TRbNo5j.png&quot; rel=&quot;nofollow&quot; target=&quot;_NEW&quot;&gt;\nhttp://i.imgur.com/TRbNo5j.png&lt;/a&gt;\n\n\nVideo\nID                                       : 1\nFormat                                   : AVC\nFormat/Info                              : Advanced Video Codec\nFormat profile                           : &lt;a class=&quot;__cf_email__&quot; href=&quot;/cdn-cgi/l/email-protection&quot; data-cfemail=&quot;723a1b151a323e415c43&quot;&gt;[email&amp;#160;protected]&lt;/a&gt;&lt;script cf-hash='f9e31' type=&quot;text/javascript&quot;&gt;\n/* &lt;![CDATA[ */!function(){try{var t=&quot;currentScript&quot;in document?document.currentScript:function(){for(var t=document.getElementsByTagName(&quot;script&quot;),e=t.length;e--;)if(t[e].getAttribute(&quot;cf-hash&quot;))return t[e]}();if(t&amp;&amp;t.previousSibling){var e,r,n,i,c=t.previousSibling,a=c.getAttribute(&quot;data-cfemail&quot;);if(a){for(e=&quot;&quot;,r=parseInt(a.substr(0,2),16),n=2;a.length-n;n+=2)i=parseInt(a.substr(n,2),16)^r,e+=String.fromCharCode(i);e=document.createTextNode(e),c.parentNode.replaceChild(e,c)}}}catch(u){}}();/* ]]&gt; */&lt;/script&gt;\nFormat settings, CABAC                   : Yes\nFormat settings, ReFrames                : 4 frames\nCodec ID                                 : avc1\nCodec ID/Info                            : Advanced Video Coding\nDuration                                 : 1h 40mn\nBit rate                                 : 1 534 Kbps\nWidth                                    : 1 280 pixels\nHeight                                   : 544 pixels\nDisplay aspect ratio                     : 2.35:1\nFrame rate mode                          : Constant\nFrame rate                               : 24.000 fps\nColor space                              : YUV\nChroma subsampling                       : 4:2:0\nBit depth                                : 8 bits\nScan type                                : Progressive\nBits/(Pixel*Frame)                       : 0.092\nStream size                              : 1.08 GiB (84%)\nWriting library                          : x264 core 123 r2189 35cf912\n\nAudio\nID                                       : 2\nFormat                                   : AAC\nFormat/Info                              : Advanced Audio Codec\nFormat profile                           : LC\nCodec ID                                 : 40\nDuration                                 : 1h 40mn\nBit rate mode                            : Constant\nBit rate                                 : 277 Kbps\nChannel count                            : 2 channels\nOriginal Channel count                   : 6 channels\nChannel positions                        : Front: L C R, Side: L R, LFE\nSampling rate                            : 48.0 KHz\nCompression mode                         : Lossy\nStream size                              : 200 MiB (15%)","torrent":{"xt":"urn:btih:e6b365dd5cac049d414143f409e53453aef4fbdf","amp;dn":"Riger+Mortis+%282013%29+720p+BluRay+x264+HC+Eng+Subs-BDM","amp;tr":["udp%3A%2F%2Ftracker.openbittorrent.com%3A80","udp%3A%2F%2Fopen.demonii.com%3A1337","udp%3A%2F%2Ftracker.coppersurfer.tk%3A6969","udp%3A%2F%2Fexodus.desync.com%3A6969"],"infoHash":"e6b365dd5cac049d414143f409e53453aef4fbdf","infoHashBuffer":{"type":"Buffer","data":[230,179,101,221,92,172,4,157,65,65,67,244,9,229,52,83,174,244,251,223]},"announce":[],"urlList":[]}}